<svg id="visual" viewBox="0 0 900 600" width="900" height="600" xmlns="http://www.w3.org/2000/svg" xmlns:xlink="http://www.w3.org/1999/xlink" version="1.1"><rect x="0" y="0" width="900" height="600" fill="#090a0a"></rect><path d="M0 352L37.5 333.3C75 314.7 150 277.3 225 257.5C300 237.7 375 235.3 450 245C525 254.7 600 276.3 675 296.2C750 316 825 334 862.5 343L900 352L900 0L862.5 0C825 0 750 0 675 0C600 0 525 0 450 0C375 0 300 0 225 0C150 0 75 0 37.5 0L0 0Z" fill="#077255" stroke-linecap="round" stroke-linejoin="miter"></path></svg>