<svg id="visual" viewBox="0 0 900 600" width="900" height="600" xmlns="http://www.w3.org/2000/svg" xmlns:xlink="http://www.w3.org/1999/xlink" version="1.1"><rect x="0" y="0" width="900" height="600" fill="#090a0a"></rect><path d="M0 383L37.5 387.8C75 392.7 150 402.3 225 384.2C300 366 375 320 450 321.3C525 322.7 600 371.3 675 375.5C750 379.7 825 339.3 862.5 319.2L900 299L900 0L862.5 0C825 0 750 0 675 0C600 0 525 0 450 0C375 0 300 0 225 0C150 0 75 0 37.5 0L0 0Z" fill="#077255" stroke-linecap="round" stroke-linejoin="miter"></path></svg>