<svg id="visual" viewBox="0 0 900 600" width="900" height="600" xmlns="http://www.w3.org/2000/svg" xmlns:xlink="http://www.w3.org/1999/xlink" version="1.1"><rect x="0" y="0" width="900" height="600" fill="#090a0a"></rect><path d="M0 246L37.5 264.7C75 283.3 150 320.7 225 340.5C300 360.3 375 362.7 450 353C525 343.3 600 321.7 675 301.8C750 282 825 264 862.5 255L900 246L900 601L862.5 601C825 601 750 601 675 601C600 601 525 601 450 601C375 601 300 601 225 601C150 601 75 601 37.5 601L0 601Z" fill="#077255" stroke-linecap="round" stroke-linejoin="miter"></path></svg>