<svg id="visual" viewBox="0 0 900 600" width="900" height="600" xmlns="http://www.w3.org/2000/svg" xmlns:xlink="http://www.w3.org/1999/xlink" version="1.1"><rect x="0" y="0" width="900" height="600" fill="#090a0a"></rect><path d="M0 248L37.5 280.7C75 313.3 150 378.7 225 375.2C300 371.7 375 299.3 450 288C525 276.7 600 326.3 675 352.5C750 378.7 825 381.3 862.5 382.7L900 384L900 0L862.5 0C825 0 750 0 675 0C600 0 525 0 450 0C375 0 300 0 225 0C150 0 75 0 37.5 0L0 0Z" fill="#077255" stroke-linecap="round" stroke-linejoin="miter"></path></svg>