<svg id="visual" viewBox="0 0 900 600" width="900" height="600" xmlns="http://www.w3.org/2000/svg" xmlns:xlink="http://www.w3.org/1999/xlink" version="1.1"><rect x="0" y="0" width="900" height="600" fill="#090a0a"></rect><path d="M0 215L37.5 210.2C75 205.3 150 195.7 225 213.8C300 232 375 278 450 276.7C525 275.3 600 226.7 675 222.5C750 218.3 825 258.7 862.5 278.8L900 299L900 601L862.5 601C825 601 750 601 675 601C600 601 525 601 450 601C375 601 300 601 225 601C150 601 75 601 37.5 601L0 601Z" fill="#077255" stroke-linecap="round" stroke-linejoin="miter"></path></svg>