<svg id="visual" viewBox="0 0 900 600" width="900" height="600" xmlns="http://www.w3.org/2000/svg" xmlns:xlink="http://www.w3.org/1999/xlink" version="1.1"><rect x="0" y="0" width="900" height="600" fill="#090a0a"></rect><path d="M0 185L37.5 219.2C75 253.3 150 321.7 225 340.5C300 359.3 375 328.7 450 303.3C525 278 600 258 675 254C750 250 825 262 862.5 268L900 274L900 601L862.5 601C825 601 750 601 675 601C600 601 525 601 450 601C375 601 300 601 225 601C150 601 75 601 37.5 601L0 601Z" fill="#077255" stroke-linecap="round" stroke-linejoin="miter"></path></svg>