<svg id="visual" viewBox="0 0 900 450" width="900" height="450" xmlns="http://www.w3.org/2000/svg" xmlns:xlink="http://www.w3.org/1999/xlink" version="1.1"><rect x="0" y="0" width="900" height="450" fill="#090a0a"></rect><path d="M0 65L30 65C60 65 120 65 180 74.5C240 84 300 103 360 103.8C420 104.7 480 87.3 540 78C600 68.7 660 67.3 720 70.8C780 74.3 840 82.7 870 86.8L900 91L900 451L870 451C840 451 780 451 720 451C660 451 600 451 540 451C480 451 420 451 360 451C300 451 240 451 180 451C120 451 60 451 30 451L0 451Z" fill="#7a71ad"></path><path d="M0 180L30 178.2C60 176.3 120 172.7 180 169.7C240 166.7 300 164.3 360 161.3C420 158.3 480 154.7 540 149.3C600 144 660 137 720 142.2C780 147.3 840 164.7 870 173.3L900 182L900 451L870 451C840 451 780 451 720 451C660 451 600 451 540 451C480 451 420 451 360 451C300 451 240 451 180 451C120 451 60 451 30 451L0 451Z" fill="#8271ad"></path><path d="M0 167L30 170.7C60 174.3 120 181.7 180 188.7C240 195.7 300 202.3 360 199.5C420 196.7 480 184.3 540 183.8C600 183.3 660 194.7 720 192.7C780 190.7 840 175.3 870 167.7L900 160L900 451L870 451C840 451 780 451 720 451C660 451 600 451 540 451C480 451 420 451 360 451C300 451 240 451 180 451C120 451 60 451 30 451L0 451Z" fill="#8a71ac"></path><path d="M0 241L30 239.8C60 238.7 120 236.3 180 232C240 227.7 300 221.3 360 219.7C420 218 480 221 540 221.2C600 221.3 660 218.7 720 216.7C780 214.7 840 213.3 870 212.7L900 212L900 451L870 451C840 451 780 451 720 451C660 451 600 451 540 451C480 451 420 451 360 451C300 451 240 451 180 451C120 451 60 451 30 451L0 451Z" fill="#9171ab"></path><path d="M0 261L30 260.2C60 259.3 120 257.7 180 259.3C240 261 300 266 360 271.2C420 276.3 480 281.7 540 278.2C600 274.7 660 262.3 720 256.3C780 250.3 840 250.7 870 250.8L900 251L900 451L870 451C840 451 780 451 720 451C660 451 600 451 540 451C480 451 420 451 360 451C300 451 240 451 180 451C120 451 60 451 30 451L0 451Z" fill="#9971a9"></path><path d="M0 321L30 322.2C60 323.3 120 325.7 180 324.2C240 322.7 300 317.3 360 317C420 316.7 480 321.3 540 325C600 328.7 660 331.3 720 332.8C780 334.3 840 334.7 870 334.8L900 335L900 451L870 451C840 451 780 451 720 451C660 451 600 451 540 451C480 451 420 451 360 451C300 451 240 451 180 451C120 451 60 451 30 451L0 451Z" fill="#a071a8"></path><path d="M0 364L30 364.5C60 365 120 366 180 363.2C240 360.3 300 353.7 360 348.3C420 343 480 339 540 342.5C600 346 660 357 720 360.5C780 364 840 360 870 358L900 356L900 451L870 451C840 451 780 451 720 451C660 451 600 451 540 451C480 451 420 451 360 451C300 451 240 451 180 451C120 451 60 451 30 451L0 451Z" fill="#a771a6"></path><path d="M0 418L30 417.2C60 416.3 120 414.7 180 411.7C240 408.7 300 404.3 360 401.8C420 399.3 480 398.7 540 398.3C600 398 660 398 720 395.5C780 393 840 388 870 385.5L900 383L900 451L870 451C840 451 780 451 720 451C660 451 600 451 540 451C480 451 420 451 360 451C300 451 240 451 180 451C120 451 60 451 30 451L0 451Z" fill="#ad71a4"></path></svg>