<svg id="visual" viewBox="0 0 900 450" width="900" height="450" xmlns="http://www.w3.org/2000/svg" xmlns:xlink="http://www.w3.org/1999/xlink" version="1.1"><rect x="0" y="0" width="900" height="450" fill="#090a0a"></rect><path d="M0 117L30 107.8C60 98.7 120 80.3 180 71.5C240 62.7 300 63.3 360 71.2C420 79 480 94 540 107C600 120 660 131 720 134C780 137 840 132 870 129.5L900 127L900 451L870 451C840 451 780 451 720 451C660 451 600 451 540 451C480 451 420 451 360 451C300 451 240 451 180 451C120 451 60 451 30 451L0 451Z" fill="#ad71a4"></path><path d="M0 136L30 131.3C60 126.7 120 117.3 180 119.8C240 122.3 300 136.7 360 140.7C420 144.7 480 138.3 540 143.3C600 148.3 660 164.7 720 163.7C780 162.7 840 144.3 870 135.2L900 126L900 451L870 451C840 451 780 451 720 451C660 451 600 451 540 451C480 451 420 451 360 451C300 451 240 451 180 451C120 451 60 451 30 451L0 451Z" fill="#a771a6"></path><path d="M0 173L30 174C60 175 120 177 180 184C240 191 300 203 360 206.8C420 210.7 480 206.3 540 203.8C600 201.3 660 200.7 720 193.3C780 186 840 172 870 165L900 158L900 451L870 451C840 451 780 451 720 451C660 451 600 451 540 451C480 451 420 451 360 451C300 451 240 451 180 451C120 451 60 451 30 451L0 451Z" fill="#a071a8"></path><path d="M0 235L30 234.8C60 234.7 120 234.3 180 238.5C240 242.7 300 251.3 360 254.7C420 258 480 256 540 251.3C600 246.7 660 239.3 720 233C780 226.7 840 221.3 870 218.7L900 216L900 451L870 451C840 451 780 451 720 451C660 451 600 451 540 451C480 451 420 451 360 451C300 451 240 451 180 451C120 451 60 451 30 451L0 451Z" fill="#9971a9"></path><path d="M0 291L30 290.8C60 290.7 120 290.3 180 290.7C240 291 300 292 360 289C420 286 480 279 540 271.3C600 263.7 660 255.3 720 259.3C780 263.3 840 279.7 870 287.8L900 296L900 451L870 451C840 451 780 451 720 451C660 451 600 451 540 451C480 451 420 451 360 451C300 451 240 451 180 451C120 451 60 451 30 451L0 451Z" fill="#9171ab"></path><path d="M0 290L30 293.8C60 297.7 120 305.3 180 310C240 314.7 300 316.3 360 313.8C420 311.3 480 304.7 540 301.5C600 298.3 660 298.7 720 298.3C780 298 840 297 870 296.5L900 296L900 451L870 451C840 451 780 451 720 451C660 451 600 451 540 451C480 451 420 451 360 451C300 451 240 451 180 451C120 451 60 451 30 451L0 451Z" fill="#8a71ac"></path><path d="M0 367L30 362C60 357 120 347 180 341.8C240 336.7 300 336.3 360 337.8C420 339.3 480 342.7 540 342.8C600 343 660 340 720 339.3C780 338.7 840 340.3 870 341.2L900 342L900 451L870 451C840 451 780 451 720 451C660 451 600 451 540 451C480 451 420 451 360 451C300 451 240 451 180 451C120 451 60 451 30 451L0 451Z" fill="#8271ad"></path><path d="M0 399L30 399.3C60 399.7 120 400.3 180 397.7C240 395 300 389 360 388.7C420 388.3 480 393.7 540 398.7C600 403.7 660 408.3 720 410.2C780 412 840 411 870 410.5L900 410L900 451L870 451C840 451 780 451 720 451C660 451 600 451 540 451C480 451 420 451 360 451C300 451 240 451 180 451C120 451 60 451 30 451L0 451Z" fill="#7a71ad"></path></svg>